<?xml version="1.0" encoding="utf-8"?>
<!-- Generator: Adobe Illustrator 16.0.0, SVG Export Plug-In . SVG Version: 6.00 Build 0)  -->
<!DOCTYPE svg PUBLIC "-//W3C//DTD SVG 1.1//EN" "http://www.w3.org/Graphics/SVG/1.1/DTD/svg11.dtd">
<svg version="1.1" xmlns="http://www.w3.org/2000/svg" xmlns:xlink="http://www.w3.org/1999/xlink" x="0px" y="0px"
	 width="841.89px" height="595.28px" viewBox="0 0 841.89 595.28" enable-background="new 0 0 841.89 595.28" xml:space="preserve">
<g id="Layer_2">
	<path fill="none" stroke="#000000" stroke-width="7" stroke-miterlimit="10" d="M344.102,47.339"/>
	<path fill="none" stroke="#000000" stroke-width="7" stroke-miterlimit="10" d="M483.892,47.339"/>
	<path stroke="#000000" stroke-miterlimit="10" d="M426.084,46.252c-0.333,0.409-28.513,14.317-41.506-7.466
		c0,0-2.995-14.619,17.922-15.952c11.917-0.417,13.5-2.25,13.5-2.25s2.919-5.196-5.833-5.333
		c-8.333-0.13-23.999-2.916-35.499,11.584c-3.75,8.333-1.846,13.684-1.846,13.684S374.084,52.001,396,58.584l17,15.584h1.667
		c0,0-0.5-10.417-7.417-15.75c6.75-0.833,28.417-4.25,30.167-19.917s-8.167-19.583-16.833-21.917
		c-1.917,0.417-3.667,1.417-3.667,1.417s0.083,2.083,2.5,3.417S440.424,28.632,426.084,46.252z"/>
	<circle fill="none" stroke="#000000" stroke-width="4" stroke-miterlimit="10" cx="449" cy="37" r="20.287"/>
	<line fill="none" stroke="#000000" stroke-width="6" stroke-miterlimit="10" x1="482.5" y1="35" x2="475.25" y2="55.287"/>
	<line fill="none" stroke="#000000" stroke-width="6" stroke-miterlimit="10" x1="360.56" y1="31.406" x2="365.984" y2="52.254"/>
</g>
<g id="Layer_5">
	<path fill="none" stroke="#000000" stroke-width="7" stroke-miterlimit="10" d="M472.344,44.141
		C576.697,70.203,654,164.574,654,277c0,132.548-107.451,240-240,240c-132.548,0-240-107.452-240-240
		c0-57.99,20.567-111.177,54.804-152.663c32.591-39.491,77.571-68.381,128.989-80.72c4.32-1.037,8.685-1.956,13.091-2.755"/>
	<path fill="#FFFFFF" stroke="#000000" stroke-miterlimit="10" d="M369.549,41.11"/>
</g>
<g id="Layer_3">
	<path stroke="#000000" stroke-width="2" stroke-miterlimit="10" d="M324,94c0,0-17,124-197,246c0,0,157-112,197-191
		c62,101,128,128,128,128S358,216,324,94z"/>
	<circle stroke="#000000" stroke-width="2" stroke-miterlimit="10" cx="472.216" cy="44.144" r="4.28"/>
	<circle stroke="#000000" stroke-width="2" stroke-miterlimit="10" cx="369.549" cy="40.863" r="4.28"/>
</g>
<g id="Layer_4">
	<path d="M239.194,108.312c0,0-19.498,47.52,12.603,116.602c31.533,67.861,95.523,124.843,128.108,135.367
		c0.586,0.189,1.163,0.364,1.729,0.523c0,0-1.715,3.944-2.882,7.777c-0.664-0.07-2.211-0.582-4.499-1.539
		c-27.576-11.54-162.656-87.923-152.91-238.25L239.194,108.312z"/>
	<path stroke="#000000" stroke-width="3" stroke-miterlimit="10" d="M200.667,319c0,0,77.333-6,179.333-71.333
		c6.667,0.667,5.222,6.667,5.222,6.667S310.667,381.666,358,475c0,0-0.666,4.001-3.333,3.334S301.333,401,368,269
		C368,269,255.334,326.333,200.667,319z"/>
	<path stroke="#000000" stroke-width="4" stroke-miterlimit="10" d="M424.873,420.301c0,0,63.794-60.971,62.794-76.637
		S467,351.998,467,351.998S490.062,280.8,468.334,277S445.333,376.665,445,381.998s-4.999,67.667-4.666,69h4.333
		c0,0,4.333-61.154,6-61.577s9.001-7.577,12.667,0s12.39,45.244,24.361,41.577s16.972-19.334,16.972-19.334L500,407.998
		c0,0-5.332,21-12.666,18.333s-12-19-12-19s-3.129-17.333-10.564-24c-5.694-3.997-8.436-3.667-8.436-3.667
		s-27.219,26.091-31.808,30.738C424.653,417.238,424.873,420.301,424.873,420.301"/>
	<path fill="#FFFFFF" d="M450.145,376.388c0,0,3.948-86.542,16.453-93.452C479.102,276.025,470.217,348.09,450.145,376.388z"/>
	<path fill="#FFFFFF" d="M456.084,377.693c0,0,11.506-27.141,24.191-30.387C492.96,344.062,457.854,381.233,456.084,377.693z"/>
	<path stroke="#000000" stroke-width="4" stroke-miterlimit="10" d="M500,407.998c0,0,15.25-41.834,12-83.166l3.25-1.082
		c0,0,9.672,70.526,27.25,55.183c19.949-17.414,12.25-72.433,1.75-108.183l3.5-2.25c0,0,13.75,37.25,14.5,84.5
		s12.412,103.262-6.588,117.752c0,0-43.162,18.748-26.412-36.252c15.179-49.839,21.5-46.25,24.5-60.25c0,0-22.25,34.967-36-12.731
		c1.25,4.023-13.083,50.146-13.083,50.146"/>
	<path stroke="#000000" stroke-width="3" stroke-miterlimit="10" d="M562.875,369.493c0,0,3.875-49.493-1.375-84.493l6.75,23.75
		l4-5.5l-18-73.25c0,0,0-57.5,27.75-20.25c0,0,13.75,25.25,21.75,15.25s11.75-42.5-8-99.75l-3.75-4.5c0,0,25.25,89.75,8.25,98.25
		c-10.173,2.352-20.75-20.5-20.75-20.5s-22.25-21.25-30,14l-6.75-15.5l-3,0.25c0,0,11,32.75,15.75,71.25s3.5,45.25,3.5,45.25
		L562.875,369.493z"/>
	<path fill="#FFFFFF" d="M557.75,386.25c0,0-41.5,72.5-16,79.25S557.75,386.25,557.75,386.25z"/>
	<path d="M389.416,369.961c0,0-10.709-0.222-14.962-3.14l2.654-7.528c0,0,7.184,2.918,13.892,2.96L389.416,369.961z"/>
</g>
<g id="Layer_6">
	<path stroke="#000000" stroke-width="4" stroke-miterlimit="10" d="M390.871,367.748c14.438-1.375,15.979-1.869,24.129-6.787
		c8.825-5.326,31-21,18-31.5s-16,20.5-15.5,21.5s-2,35,2,71.5s-51.5,47.5-33.5-11c0,0-21.667,34.333,10,45
		c31.667,0.732,30-38.5,30-38.5s-5.522-60.796-2.003-75.961c0,0,9.084-14.666,6.25,0.502c0,0-20.081,22.792-39.328,21.754
		C390.919,364.256,390.919,364.256,390.871,367.748z"/>
</g>
<g id="Layer_7">
</g>
</svg>
