<?xml version="1.0" encoding="utf-8"?>
<!-- Generator: Adobe Illustrator 16.0.0, SVG Export Plug-In . SVG Version: 6.00 Build 0)  -->
<!DOCTYPE svg PUBLIC "-//W3C//DTD SVG 1.1//EN" "http://www.w3.org/Graphics/SVG/1.1/DTD/svg11.dtd">
<svg version="1.1" xmlns="http://www.w3.org/2000/svg" xmlns:xlink="http://www.w3.org/1999/xlink" x="0px" y="0px"
	 width="841.891px" height="595.279px" viewBox="0 0 841.891 595.279" enable-background="new 0 0 841.891 595.279"
	 xml:space="preserve">
<g id="Layer_1">
	<g id="Layer_2">
		<path fill="none" stroke="#000000" stroke-width="7" stroke-miterlimit="10" d="M344.102,47.339"/>
		<path fill="none" stroke="#000000" stroke-width="7" stroke-miterlimit="10" d="M483.892,47.339"/>
		<path stroke="#000000" stroke-miterlimit="10" d="M426.085,46.252c-0.333,0.409-28.514,14.316-41.507-7.466
			c0,0-2.995-14.619,17.922-15.952c11.917-0.417,13.5-2.25,13.5-2.25s2.919-5.196-5.833-5.333
			c-8.333-0.13-23.999-2.916-35.499,11.584c-3.75,8.333-1.846,13.684-1.846,13.684S374.084,52.001,396,58.584l17,15.584h1.667
			c0,0-0.5-10.417-7.417-15.75c6.75-0.833,28.417-4.25,30.167-19.917s-8.166-19.583-16.833-21.917
			c-1.917,0.417-3.667,1.417-3.667,1.417s0.083,2.083,2.5,3.417C421.835,22.752,440.425,28.632,426.085,46.252z"/>
		<circle fill="none" stroke="#000000" stroke-width="4" stroke-miterlimit="10" cx="449.001" cy="37" r="20.287"/>
		<line fill="none" stroke="#000000" stroke-width="6" stroke-miterlimit="10" x1="482.501" y1="35" x2="475.251" y2="55.287"/>
		<line fill="none" stroke="#000000" stroke-width="6" stroke-miterlimit="10" x1="360.56" y1="31.406" x2="365.984" y2="52.254"/>
	</g>
	<g id="Layer_5">
		<path fill="none" stroke="#000000" stroke-width="8" stroke-miterlimit="10" d="M472.344,44.141
			C576.697,70.203,654.001,164.574,654.001,277c0,132.548-107.451,239.999-240.001,239.999c-132.548,0-240-107.451-240-239.999
			c0-57.99,20.567-111.178,54.805-152.663c32.591-39.491,77.57-68.381,128.988-80.72c4.32-1.037,8.686-1.956,13.091-2.756"/>
		<path fill="#FFFFFF" stroke="#000000" stroke-miterlimit="10" d="M369.549,41.11"/>
	</g>
	<g id="Layer_3">
		<path stroke="#000000" stroke-width="2" stroke-miterlimit="10" d="M324,94c0,0-56.555,148.64-197,245.999
			c0,0,150.445-92.332,197-190.999c62,101,128.001,128,128.001,128S358,216,324,94z"/>
		<circle stroke="#000000" stroke-width="2" stroke-miterlimit="10" cx="472.217" cy="44.144" r="4.28"/>
		<circle stroke="#000000" stroke-width="2" stroke-miterlimit="10" cx="369.549" cy="40.863" r="4.28"/>
	</g>
	<g id="Layer_4">
		<path d="M239.194,108.312c0,0-19.498,47.521,12.603,116.603c31.533,67.86,95.523,124.843,128.108,135.366
			c0.586,0.189,1.163,0.364,1.729,0.523c0,0-1.715,3.943-2.882,7.776c-0.664-0.069-2.211-0.581-4.499-1.538
			c-27.575-11.54-162.655-87.923-152.909-238.25L239.194,108.312z"/>
		<path stroke="#000000" stroke-width="3" stroke-miterlimit="10" d="M200.667,318.999c0,0,77.333-6,179.333-71.332
			c6.667,0.667,5.223,6.667,5.223,6.667S310.667,381.665,358,474.999c0,0-0.666,4.002-3.333,3.335S301.333,400.999,368,269
			C368,269,255.334,326.333,200.667,318.999z"/>
		<path stroke="#000000" stroke-width="4" stroke-miterlimit="10" d="M424.525,410.402c0.127,6.836,0.347,9.899,0.347,9.899
			s8.224-7.859,18.719-18.66c0.28-3.872,0.539-7.444,0.758-10.466C436.425,398.798,427.051,407.845,424.525,410.402z"/>
		<path stroke="#000000" stroke-width="4" stroke-miterlimit="10" d="M487.666,343.663c-1-15.666-20.666,8.334-20.666,8.334
			S490.061,280.8,468.334,277c-21.729-3.8-23.002,99.664-23.334,104.997c-0.067,1.072-0.31,4.453-0.651,9.178
			c6.477-6.231,11.985-11.512,11.985-11.512s1.925-0.221,5.882,2.041C475.947,366.289,488.107,350.572,487.666,343.663z
			 M466.597,282.936c12.504-6.911,0.68,65.371-16.453,93.452C450.144,376.388,454.093,289.846,466.597,282.936z M456.085,377.693
			c0,0,11.506-27.141,24.19-30.387C489.945,344.807,462.278,372.473,456.085,377.693z"/>
		<path fill="none" d="M480.275,347.306c-12.685,3.246-24.19,30.387-24.19,30.387C462.278,372.473,489.945,344.807,480.275,347.306z
			"/>
		<path stroke="#000000" stroke-width="4" stroke-miterlimit="10" d="M440.334,450.997h4.333c0,0,2.827-39.9,4.793-55.462
			c-2.007,2.111-3.976,4.156-5.869,6.105C442.133,421.812,440.11,450.104,440.334,450.997z"/>
		<path stroke="#000000" stroke-width="4" stroke-miterlimit="10" d="M449.46,395.535c2.924-3.077,5.93-6.295,8.912-9.565
			c-3.259,0.165-6.64,3.181-7.705,3.451C450.346,389.502,449.927,391.832,449.46,395.535z"/>
		<path stroke="#000000" stroke-width="4" stroke-miterlimit="10" d="M500,407.997c0,0-5.332,21-12.666,18.333
			c-7.335-2.667-12-19-12-19s-3.13-17.333-10.564-24c-0.933-0.654-1.778-1.184-2.554-1.626c-1.271,1.427-2.555,2.851-3.844,4.266
			c1.839-0.094,3.64,0.718,4.962,3.451c3.666,7.576,11.846,41.939,24.36,41.576c12.306-0.357,16.972-19.334,16.972-19.334
			L500,407.997z"/>
		<path stroke="#000000" stroke-width="4" stroke-miterlimit="10" d="M456.334,379.663c0,0-5.509,5.28-11.985,11.512
			c-0.219,3.021-0.478,6.594-0.758,10.466c1.894-1.949,3.862-3.994,5.869-6.105c0.468-3.703,0.887-6.033,1.207-6.114
			c1.065-0.271,4.446-3.286,7.705-3.451c1.289-1.415,2.573-2.839,3.844-4.266C458.259,379.443,456.334,379.663,456.334,379.663z"/>
		<path fill="none" d="M466.597,282.936c-12.505,6.91-16.453,93.452-16.453,93.452C467.277,348.307,479.101,276.025,466.597,282.936
			z"/>
		<path stroke="#000000" stroke-width="4" stroke-miterlimit="10" d="M562.251,352.999c-0.75-47.25-14.5-84.499-14.5-84.499
			l-3.5,2.25c10.5,35.749,18.198,90.769-1.75,108.183c-17.578,15.343-27.25-55.184-27.25-55.184l-3.25,1.082
			c3.25,41.332-12,83.166-12,83.166l4.666,3.667c0,0,14.334-46.122,13.084-50.146c13.75,47.698,36,12.73,36,12.73
			c-3,14-9.321,10.411-24.5,60.25c-16.75,55,26.411,36.253,26.411,36.253C574.662,456.262,563.001,400.249,562.251,352.999z
			 M541.751,465.499c-25.5-6.75,16-79.25,16-79.25S567.251,472.249,541.751,465.499z"/>
		<path fill="none" d="M541.751,465.499c25.5,6.75,16-79.25,16-79.25S516.251,458.749,541.751,465.499z"/>
		<path stroke="#000000" stroke-width="3" stroke-miterlimit="10" d="M562.876,369.492c0,0,3.875-49.493-1.375-84.492l6.75,23.749
			l4-5.5l-18-73.249c0,0,0-57.5,27.75-20.25c0,0,13.75,25.25,21.75,15.25s11.75-42.5-8-99.75l-3.75-4.5c0,0,25.25,89.75,8.25,98.25
			c-10.174,2.352-20.75-20.5-20.75-20.5s-22.25-21.25-30,14l-6.75-15.5l-3,0.25c0,0,11,32.75,15.75,71.25
			c4.75,38.499,3.5,45.249,3.5,45.249L562.876,369.492z"/>
		<path d="M389.416,369.961c0,0-10.709-0.223-14.962-3.141l2.654-7.528c0,0,7.184,2.919,13.892,2.961L389.416,369.961z"/>
	</g>
	<g id="Layer_6">
		<path stroke="#000000" stroke-width="4" stroke-miterlimit="10" d="M390.215,367.884c10.574-0.232,16.636-2.005,24.785-6.923
			c8.825-5.326,31.001-21,18.001-31.5c-15.181-5.446-16.001,20.5-15.501,21.5s-2.001,35,2,71.5s-51.5,47.5-33.5-11
			c0,0-18.109,41.357,9.946,47.679c31.667,0.731,30.055-41.179,30.055-41.179s-5.522-60.797-2.004-75.962
			c0,0,9.084-14.666,6.25,0.503c0,0-20.081,22.792-39.328,21.754C390.919,364.256,390.262,364.393,390.215,367.884z"/>
	</g>
	<g id="Layer_7">
	</g>
</g>
<g id="Layer_2_1_">
</g>
</svg>
